<?xml version="1.0" encoding="UTF-8"?>
<svg data-bbox="0 0.661 1112.41 267.339" xmlns:xlink="http://www.w3.org/1999/xlink" xmlns="http://www.w3.org/2000/svg" viewBox="0 0 1113 268" height="268" width="1113" data-type="color">
    <g>
        <defs>
            <path id="5409e6cd-f33e-4cee-bf1f-fe18ae06f4b5" d="M.06.661h417.78V268H.06V.661z"/>
        </defs>
        <g fill-rule="evenodd">
            <mask fill="#ffffff" id="b9b3f774-d861-4ca6-80f2-ef404f072ef5">
                <use xlink:href="#5409e6cd-f33e-4cee-bf1f-fe18ae06f4b5"/>
            </mask>
            <path mask="url(#b9b3f774-d861-4ca6-80f2-ef404f072ef5)" fill="#0B0B09" d="M405.504 268h12.336V.661h-12.336V268z" data-color="1"/>
            <path mask="url(#b9b3f774-d861-4ca6-80f2-ef404f072ef5)" fill="#0B0B09" d="m52.642 152.343 48.135-90.5 48.558 90.5H52.642Zm101.817 9.323 1.033 1.932c1.522 2.815 3.013 5.573 4.483 8.317 19.197 37.48 48.132 57.161 87.58 57.269 47.351-.043 86.272-31.972 93.114-76.841H181.778c.842 3.489 1.951 6.712 2.923 9.374l141.673-.051-2.212 5.089c-12.561 29.242-39.154 51.468-76.534 51.411-51.077-.081-83.161-41.148-83.256-83.582.016-46.164 37.26-83.577 83.256-83.577 30.204 0 56.71 15.765 71.279 39.969h11.485c-15.284-31.04-45.778-50.974-82.837-51.003-48.398-.017-88.235 36.616-93.598 83.745l-1.332 11.507-51.827-96.184-61.046 113.302H5.029L0 161.666h34.731L0 226.158h12.817l34.76-64.492h106.882Z" data-color="1"/>
            <path fill="#0B0B0A" d="m647.262 204.455-8.828-7.944c-15.728 17.477-38.222 27.501-61.716 27.501-45.766 0-82.999-37.233-82.999-82.999s37.233-83 82.999-83a82.979 82.979 0 0 1 62.868 28.809l8.992-7.759a94.85 94.85 0 0 0-71.86-32.926c-52.314 0-94.875 42.561-94.875 94.876 0 52.315 42.561 94.875 94.875 94.875 26.855 0 52.568-11.457 70.544-31.433Zm229.434-56.167h29.11c36.87 0 60.69-17.5 60.69-44.58 0-26.86-23.25-43.54-60.69-43.54h-29.11v88.12Zm110.47 84.44-16.78.04-.3-.31-68.71-72.46-24.68-.42v73.16h-12.35V48.618h41.43c45.21 0 73.3 21.09 73.3 55.05 0 31.15-22.96 51.82-61.41 55.32l-.92.08 70.42 73.66Zm-185.189-63.759-49.153-97.801-49.142 97.801h98.295Zm43.27 63.799h-13.155l-24.561-52.197H698.056l-24.51 52.197h-13.154l92.422-187.817 92.433 187.817Zm173.283-172.58v76.51h89.11v11.51h-89.11v73.05h93.88v11.52h-106.2v-184.1h106.2v11.51h-93.88Z" data-color="2"/>
        </g>
    </g>
</svg>
